<svg width="259" height="7" viewBox="0 0 259 7" fill="none" xmlns="http://www.w3.org/2000/svg">
<g clip-path="url(#clip0_34_41)">
<path d="M0.924972 4.23278C9.7693 3.84615 18.6353 3.65284 27.4796 3.06272C28.1372 3.02203 29.1126 2.78801 29.4812 1.89266C29.828 1.04819 29.1849 0.620862 28.6574 0.631037C19.8131 0.824351 10.9615 1.40429 2.11722 1.80109C1.45968 1.83162 0.462524 2.08598 0.101236 2.98133C-0.2456 3.81563 0.397492 4.27348 0.932198 4.24296L0.924972 4.23278Z" fill="black"/>
<path d="M35.1967 3.67298C35.1967 3.67298 35.2617 3.67298 35.2906 3.68316L34.951 3.63229C35.0449 3.65263 35.1316 3.67298 35.2256 3.71368L34.9438 3.58141C35.081 3.64246 35.2039 3.73403 35.3195 3.84595L35.1172 3.64246C35.2978 3.8256 35.4423 4.04944 35.5579 4.31397L35.4496 4.04944C35.4857 4.14101 35.5146 4.21223 35.5146 4.32415V4.01891C35.5146 4.14101 35.5001 4.25292 35.464 4.36484L35.5724 4.04944C35.5435 4.14101 35.5001 4.2224 35.4496 4.3038L35.6447 3.99856C35.6085 4.04944 35.5652 4.10031 35.529 4.15118L35.8036 3.8663C35.7386 3.93752 35.5507 4.06979 35.8325 3.8663C36.0926 3.68316 35.9915 3.75438 35.9265 3.79508C35.7964 3.8663 36.4106 3.58141 36.2155 3.65263C36.0637 3.71368 36.7213 3.53054 36.4612 3.58141C36.2805 3.62211 36.8803 3.58141 36.7285 3.56106C36.6996 3.56106 36.6707 3.56106 36.6418 3.56106L36.9814 3.61194C36.9164 3.60176 36.8514 3.58141 36.7863 3.55089L37.0681 3.67298C37.0031 3.64246 36.9453 3.60176 36.8875 3.55089L37.0898 3.7442C36.9814 3.64246 36.9019 3.50002 36.8369 3.3474L36.9453 3.61194C36.8514 3.37793 36.8152 3.12356 36.808 2.84886V3.15409C36.808 2.85903 36.8658 2.57415 36.9525 2.29944L36.8514 2.61484C36.9164 2.4317 36.9886 2.26891 37.0898 2.12647L36.8947 2.4317C36.9597 2.34013 37.0248 2.25874 37.097 2.17734L36.8224 2.46223C36.8803 2.40118 36.9453 2.35031 37.0103 2.28926C37.1404 2.17734 36.6563 2.52327 36.8008 2.44188C36.8297 2.42153 36.8586 2.40118 36.8875 2.39101C37.1115 2.25874 36.6563 2.50293 36.6563 2.50293C36.6852 2.49275 36.7213 2.4724 36.7502 2.46223C36.7791 2.45205 36.8152 2.44188 36.8441 2.4317C36.8441 2.4317 36.3672 2.5538 36.6057 2.50293C36.6707 2.49275 36.7357 2.4724 36.808 2.4724C36.9236 2.46223 37.097 2.48258 36.5985 2.48258C36.6346 2.48258 36.6635 2.48258 36.6996 2.48258C36.8514 2.48258 37.0031 2.49275 37.1548 2.5131L36.8152 2.46223C36.9597 2.48258 37.097 2.52327 37.2343 2.58432L36.9525 2.46223C37.0609 2.5131 37.1621 2.57415 37.256 2.66572L37.0537 2.4724C37.1404 2.56397 37.2199 2.66572 37.2777 2.78781L37.1693 2.52327C37.2271 2.66572 37.256 2.81833 37.2632 2.9913V2.68607C37.2632 2.83868 37.2343 2.97095 37.191 3.11339L37.2993 2.79798C37.2415 2.96077 37.1621 3.10322 37.0754 3.24566L37.2704 2.94043C37.1693 3.09304 37.0537 3.23548 36.9308 3.35758L37.2054 3.07269C37.1548 3.12356 37.097 3.17444 37.0464 3.22531C37.0248 3.24566 37.0031 3.25583 36.9814 3.27618C36.8152 3.40845 37.3499 3.02182 37.2054 3.11339C37.1548 3.14391 37.097 3.18461 37.0464 3.21513C37.0175 3.23548 36.9886 3.24566 36.9525 3.26601C36.8152 3.33723 37.4294 3.05234 37.2199 3.13374C37.1621 3.15409 37.1043 3.17444 37.0537 3.19479C36.9164 3.24566 37.545 3.07269 37.3355 3.11339C37.3138 3.11339 37.2849 3.12356 37.2632 3.13374C37.2343 3.13374 37.1982 3.13374 37.1693 3.14391C37.0392 3.17444 37.6173 3.13374 37.4294 3.12356C37.3716 3.12356 37.3138 3.12356 37.256 3.11339L37.5956 3.16426C37.5161 3.15409 37.4439 3.13374 37.3716 3.09304L37.6534 3.22531C37.5812 3.19479 37.5233 3.14391 37.4583 3.09304L37.6606 3.29653C37.5739 3.21513 37.5089 3.11339 37.4511 2.98112L37.5595 3.24566C37.4944 3.08287 37.4655 2.92008 37.4583 2.73694V3.04217C37.4583 2.89973 37.4872 2.76746 37.5233 2.63519L37.415 2.9506C37.4511 2.83868 37.5017 2.73694 37.5595 2.63519L37.3644 2.94043C37.415 2.85903 37.4655 2.78781 37.5306 2.72676L37.256 3.01165C37.3716 2.89973 37.4944 2.8692 37.0681 3.12356C37.2632 3.00147 36.649 3.29653 36.8152 3.23548C36.8875 3.20496 36.8441 3.21513 36.6707 3.27618C36.519 3.32705 36.3672 3.3474 36.2083 3.33723C36.2516 3.33723 36.3022 3.33723 36.3455 3.33723L36.0059 3.28636C36.0782 3.29653 36.1505 3.32705 36.2227 3.35758L35.9409 3.22531C36.0421 3.27618 36.136 3.3474 36.2227 3.4288L36.0204 3.22531C36.2588 3.45932 36.4106 3.7849 36.584 4.10031C36.7357 4.38519 37.1621 4.46659 37.3788 4.46659C37.7112 4.46659 38.0292 4.38519 38.3471 4.23258C38.6217 4.10031 38.9324 3.91717 39.1419 3.62211C39.3226 3.36775 39.4671 3.10322 39.4309 2.72676C39.3731 2.08577 38.9613 1.5974 38.6 1.282C37.9713 0.742751 37.1259 0.803798 36.4395 1.04798C36.071 1.18025 35.6736 1.40409 35.3556 1.70932C35.081 1.97386 34.7848 2.29944 34.6114 2.71659C34.409 3.21513 34.3007 3.8256 34.503 4.36484C34.5825 4.57851 34.6619 4.76165 34.7992 4.91426C35.0305 5.1788 35.2472 5.30089 35.5363 5.41281C35.9698 5.5756 36.4901 5.56542 36.9236 5.46368C37.9352 5.22967 38.9974 4.68025 39.7128 3.61194C40.074 3.07269 40.4137 2.40118 40.298 1.61775C40.2113 1.04798 39.8284 0.610484 39.4599 0.406995C38.983 0.142461 38.4699 0.0407164 37.9569 0.030542C37.3788 0.0203676 36.7719 0.111937 36.2227 0.356123C35.5941 0.641007 34.9293 1.02763 34.4669 1.7195C34.1561 2.17734 33.896 2.70641 33.8093 3.33723C33.7443 3.79508 33.7587 4.33432 33.9177 4.75147C34.0044 4.98548 34.0983 5.21949 34.2501 5.38229C34.4813 5.64682 34.7053 5.78926 34.9943 5.89101C35.7025 6.13519 36.5334 5.9317 37.1837 5.52473C37.7473 5.16862 38.311 4.64973 38.5277 3.79508C38.5928 3.54072 38.6072 3.21513 38.5277 2.97095C38.4193 2.66572 38.2893 2.37066 38.1014 2.13665C37.6173 1.52618 37.0248 1.29217 36.3889 1.2413C36.0059 1.21077 35.5435 1.36339 35.1894 1.57705C34.9221 1.73984 34.5247 2.0349 34.3729 2.42153C34.2573 2.69624 34.185 3.05234 34.3729 3.3067C34.5897 3.60176 34.9076 3.66281 35.1967 3.68316V3.67298Z" fill="black"/>
<path d="M47.5455 4.61939C54.9519 4.39555 62.3727 4.29381 69.7791 3.95805C70.4367 3.92753 71.4194 3.67317 71.7879 2.788C72.1564 1.90282 71.4916 1.52637 70.9642 1.52637C63.5578 1.62811 56.1441 1.95369 48.7377 2.17753C48.0802 2.19788 47.083 2.46241 46.7218 3.35776C46.3605 4.25311 47.018 4.63974 47.5527 4.61939H47.5455Z" fill="black"/>
<path d="M82.5398 2.58424C82.6843 2.54354 82.8216 2.60459 82.417 2.58424C82.193 2.54354 82.1352 2.53337 82.2363 2.55371C82.2724 2.55371 82.3013 2.57406 82.3302 2.58424L82.1785 2.51302C82.2219 2.53337 82.258 2.56389 82.3013 2.58424C82.3592 2.62494 82.417 2.67581 82.4675 2.72668L82.2652 2.52319C82.3881 2.65546 82.4892 2.80807 82.5759 3.00139V2.11621C82.4748 2.35023 82.3664 2.57406 82.2435 2.7979C82.1857 2.90982 82.1207 3.01156 82.0629 3.11331C81.9834 3.24557 81.9979 3.21505 82.1135 3.03191C82.0773 3.08278 82.0484 3.13366 82.0123 3.17435C81.875 3.36767 81.7305 3.55081 81.5788 3.72377C81.5426 3.76447 81.4993 3.80517 81.4632 3.84587C81.3548 3.95778 81.3837 3.92726 81.5643 3.74412C81.4921 3.79499 81.4198 3.87639 81.3548 3.93743C81.2897 3.99848 81.2103 4.05953 81.138 4.12057C80.8056 4.38511 81.3909 3.96796 81.1597 4.1104C81.073 4.16127 80.9863 4.22232 80.8923 4.27319C80.849 4.30371 80.8056 4.32406 80.755 4.34441C80.6033 4.42581 80.6611 4.39528 80.9429 4.25284C80.849 4.28336 80.755 4.33424 80.6611 4.36476C80.6177 4.38511 80.5672 4.39528 80.5166 4.41563C80.3576 4.46651 80.4227 4.44616 80.7045 4.36476C80.6539 4.37493 80.6033 4.38511 80.5527 4.39528C80.69 4.36476 80.8345 4.36476 80.9718 4.40546C80.849 4.36476 80.8706 4.38511 81.0368 4.44616C80.9935 4.42581 80.9574 4.39528 80.9212 4.35459L81.1235 4.5479C81.0368 4.45633 80.9718 4.36476 80.914 4.23249L81.0224 4.49703C80.9574 4.32406 80.9285 4.1511 80.9285 3.95778V4.26302C80.9285 3.96796 80.9935 3.69325 81.073 3.42871L80.9718 3.74412C81.0441 3.54063 81.1308 3.33714 81.2319 3.154C81.2536 3.11331 81.2897 3.06244 81.3114 3.02174C81.1741 3.33714 81.1814 3.20488 81.2608 3.11331C81.2897 3.08278 81.3259 3.04209 81.3475 3.00139C81.4415 2.85895 81.0802 3.25575 81.2247 3.12348C81.3186 3.04209 81.4054 2.96069 81.4921 2.8793C81.5354 2.8386 81.586 2.80807 81.6294 2.76738C81.6727 2.72668 81.8533 2.60459 81.6294 2.76738C81.4054 2.93017 81.5932 2.7979 81.6366 2.76738C81.6799 2.73685 81.7377 2.70633 81.7811 2.67581C81.9112 2.59441 82.3086 2.45197 81.7955 2.64528C81.8967 2.60459 81.9979 2.55371 82.1062 2.52319C82.1568 2.50284 82.2074 2.49267 82.2652 2.47232C82.482 2.4011 82.1135 2.53337 82.0918 2.52319C82.1568 2.55371 82.3375 2.47232 82.4097 2.45197C82.4603 2.45197 82.5181 2.4418 82.5687 2.43162C82.771 2.4011 82.4603 2.46214 82.4242 2.43162C82.4964 2.46214 82.6193 2.43162 82.6915 2.43162C82.7421 2.43162 82.9589 2.46214 82.7204 2.43162C82.5037 2.4011 82.6699 2.43162 82.7204 2.43162C82.7638 2.4418 82.8072 2.46214 82.8505 2.47232C82.9806 2.50284 82.641 2.35023 82.7566 2.43162C82.8433 2.49267 82.93 2.54354 83.0167 2.61476L82.8144 2.41127C82.9372 2.53337 83.0384 2.67581 83.1179 2.84877L83.0095 2.58424C83.0673 2.74703 83.0962 2.89964 83.1034 3.08278V2.77755C83.1034 2.98104 83.0745 3.16418 83.0239 3.35749L83.1251 3.04209C83.0962 3.12348 82.9444 3.40837 83.0817 3.17435C83.2407 2.91999 83.4213 2.82842 83.6453 2.69616C83.956 2.54354 84.05 2.49267 83.9199 2.52319C83.6959 2.58424 83.891 2.55371 84.5124 2.41127C83.9416 2.41127 83.2046 2.64528 82.7782 3.2354C82.6554 3.39819 82.5398 3.5915 82.4892 3.82552C82.4314 4.1104 82.5904 4.4665 82.7855 4.55807C83.4864 4.87348 84.1945 4.78191 84.8665 4.35459C85.3 4.07988 85.748 3.66273 85.972 3.05226C86.2611 2.25866 86.2249 1.35313 85.7047 0.763017C85.1266 0.111854 84.339 -0.0712855 83.6164 -0.0407622C82.6626 -6.45369e-05 81.745 0.26447 80.8562 0.732494C80.1408 1.09877 79.3532 1.65837 78.8041 2.41127C78.3922 2.97087 77.9876 3.73395 77.9081 4.55807C77.8214 5.44325 78.1032 6.17581 78.7029 6.52174C79.7001 7.0915 80.8562 6.62348 81.8244 6.14528C83.2768 5.43307 84.6208 4.02901 85.4229 2.16709C85.5674 1.83133 85.5674 1.60749 85.4229 1.28191C84.9315 0.203424 83.7826 -0.0509366 82.9589 0.172901C82.5542 0.284819 82.1568 0.417087 81.8028 0.722319C81.6077 0.895284 81.2608 1.26156 81.2247 1.62784C81.138 2.55371 82.1062 2.66563 82.547 2.55371L82.5398 2.58424Z" fill="black"/>
<path d="M81.6438 4.03944C82.1857 4.03944 83.0095 3.79525 83.3057 3.07287C83.602 2.35048 83.0601 2.0249 82.6193 2.0249C82.0774 2.0249 81.2536 2.26909 80.9574 2.99147C80.6611 3.71386 81.203 4.03944 81.6438 4.03944Z" fill="black"/>
<path d="M82.547 3.6117C83.089 3.6117 83.9127 3.36752 84.209 2.64513C84.5052 1.92275 83.9633 1.59717 83.5225 1.59717C82.9806 1.59717 82.1569 1.84135 81.8606 2.56374C81.5643 3.28612 82.1063 3.6117 82.547 3.6117Z" fill="black"/>
<path d="M82.2435 4.03944C82.7855 4.03944 83.6092 3.79525 83.9055 3.07287C84.2017 2.35048 83.6598 2.0249 83.219 2.0249C82.6771 2.0249 81.8534 2.26909 81.5571 2.99147C81.2608 3.71386 81.8028 4.03944 82.2435 4.03944Z" fill="black"/>
<path d="M95.5462 6.99987L107.122 6.3894C110.98 6.18592 114.882 6.17574 118.734 5.74841C119.261 5.68737 120.186 5.24987 120.388 4.46644C120.591 3.68301 119.998 3.38795 119.521 3.37778C115.735 3.33708 111.92 3.75423 108.133 3.95772L96.7384 4.55801C96.0809 4.58853 95.091 4.84289 94.7224 5.73824C94.3828 6.57254 95.0115 7.03039 95.5534 6.99987H95.5462Z" fill="black"/>
<path d="M127.722 4.71065C127.722 4.71065 127.78 4.80222 127.802 4.8531L127.694 4.58856C127.73 4.68013 127.744 4.76153 127.744 4.86327V4.55804C127.744 4.65978 127.722 4.75135 127.694 4.84292L127.802 4.52751C127.766 4.62926 127.722 4.71065 127.672 4.79205L127.867 4.48682C127.867 4.48682 127.802 4.56821 127.766 4.60891C128.004 4.3749 128.069 4.31385 127.961 4.40542C127.838 4.50717 127.925 4.44612 128.214 4.22228C128.077 4.30368 128.178 4.2528 128.517 4.07984C128.879 3.98827 128.987 3.95775 128.835 3.98827C129.038 3.94757 129.24 3.95775 129.435 4.00862C129.413 4.00862 129.392 3.99844 129.37 3.98827L129.652 4.12054C129.608 4.10019 129.572 4.07984 129.536 4.03914L129.738 4.24263C129.659 4.16124 129.594 4.06967 129.551 3.94757L129.659 4.21211C129.601 4.05949 129.579 3.90687 129.572 3.73391V4.03914C129.572 3.82548 129.608 3.62199 129.666 3.42868L129.558 3.74408C129.601 3.61182 129.659 3.4999 129.724 3.38798L129.529 3.69321C129.529 3.69321 129.579 3.62199 129.608 3.58129C129.717 3.42868 129.406 3.78478 129.421 3.77461C129.587 3.62199 129.023 4.02897 129.211 3.92722L128.893 4.07984C128.994 4.03914 128.958 4.04932 128.777 4.11036C128.611 4.15106 128.561 4.16123 128.64 4.15106C128.763 4.13071 128.669 4.13071 128.373 4.17141C128.431 4.17141 128.597 4.19176 128.344 4.15106C128.069 4.11036 128.387 4.18158 128.452 4.21211L128.17 4.07984C128.329 4.16124 128.474 4.26298 128.604 4.39525L128.402 4.19176C128.59 4.38507 128.756 4.61908 128.879 4.89379L128.77 4.62926C128.828 4.7717 128.864 4.90397 128.864 5.06676V4.76153C128.864 4.86327 128.85 4.94466 128.821 5.03623L128.929 4.72083C128.907 4.78187 128.886 4.82257 128.857 4.87344L129.052 4.56821C129.052 4.56821 129.001 4.63943 128.98 4.66996C129.189 4.36472 129.269 4.38507 129.139 4.50716C128.98 4.64961 129.507 4.26298 129.363 4.34437C129.153 4.46647 129.645 4.21211 129.63 4.22228C129.587 4.23246 129.551 4.2528 129.507 4.27315C129.298 4.35455 129.977 4.16124 129.753 4.20193C129.673 4.21211 129.363 4.2528 129.695 4.22228C130.027 4.19176 129.724 4.22228 129.645 4.21211C129.565 4.20193 129.486 4.20193 129.406 4.19176C129.262 4.17141 129.775 4.26298 129.594 4.22228C129.551 4.22228 129.507 4.20193 129.464 4.19176C129.377 4.17141 129.298 4.14089 129.218 4.10019L129.5 4.23246C129.399 4.18158 129.298 4.12054 129.204 4.03914L129.406 4.24263C129.305 4.14089 129.225 4.02897 129.16 3.88653L129.269 4.15106C129.204 3.98827 129.168 3.82548 129.16 3.64234V3.94757C129.16 3.76443 129.197 3.59147 129.247 3.42868L129.139 3.74408C129.189 3.61182 129.247 3.4999 129.312 3.38798L129.117 3.69321C129.16 3.63217 129.204 3.58129 129.247 3.52025C129.016 3.83565 128.994 3.77461 129.117 3.66269C128.835 3.856 128.763 3.90687 128.893 3.82548C128.987 3.77461 128.951 3.79496 128.777 3.87635C128.604 3.95775 128.568 3.9781 128.662 3.9374C128.344 4.01879 128.264 4.03914 128.423 4.00862C128.669 3.96792 128.04 4.00862 128.272 4.02897C128.308 4.02897 128.351 4.02897 128.387 4.02897C128.142 3.98827 128.084 3.9781 128.221 4.00862C128.358 4.04932 128.488 4.09001 128.626 4.15106L128.344 4.01879C128.662 4.16123 128.98 4.3342 129.262 4.60891L129.059 4.40542C129.247 4.59873 129.421 4.8124 129.543 5.09728L129.435 4.83275C129.493 4.98536 129.529 5.13798 129.536 5.31094V5.00571C129.536 5.11763 129.514 5.21937 129.486 5.32112L129.594 5.00571C129.565 5.07693 129.536 5.13798 129.5 5.19903L129.695 4.89379C129.695 4.89379 129.645 4.94466 129.637 4.97519L129.847 4.75135L130.121 4.55804C129.934 4.68013 130.555 4.3749 130.382 4.43594C130.208 4.49699 130.837 4.31385 130.671 4.35455C130.432 4.40542 131.082 4.35455 130.837 4.3342C130.808 4.3342 130.779 4.3342 130.75 4.3342C130.736 4.3342 130.721 4.3342 130.707 4.3342C130.598 4.32403 130.678 4.3342 130.938 4.36472C130.678 4.30368 130.418 4.24263 130.165 4.13071L130.447 4.26298C130.288 4.18158 130.136 4.09001 129.991 3.95775L130.194 4.16124C130.085 4.04932 129.991 3.91705 129.919 3.75426L130.027 4.01879C129.97 3.86618 129.941 3.70339 129.941 3.53042V3.83565C129.941 3.66269 129.97 3.4999 130.027 3.33711L129.919 3.65251C129.948 3.58129 129.977 3.51007 130.013 3.44903L129.818 3.75426C129.818 3.75426 129.861 3.70339 129.876 3.67286C129.811 3.77461 129.493 4.02897 129.377 4.10019C129.435 4.06967 128.893 4.32403 129.066 4.2528C128.9 4.32403 128.734 4.35455 128.568 4.36472C128.402 4.36472 128.366 4.36472 128.452 4.38507C128.777 4.4156 129.117 4.2935 129.421 4.15106C129.695 4.01879 130.006 3.83565 130.215 3.5406C130.338 3.36763 130.461 3.17432 130.512 2.93013C130.577 2.61472 130.403 2.28914 130.208 2.17722C129.565 1.81094 128.821 1.94321 128.192 2.31967C127.78 2.56385 127.376 2.91996 127.123 3.43885C126.891 3.91705 126.769 4.63943 126.964 5.17868C127.253 5.96211 127.802 6.29786 128.373 6.5217C128.944 6.74554 129.551 6.81676 130.143 6.76589C130.548 6.72519 130.952 6.5624 131.328 6.34873C131.747 6.10455 132.21 5.69757 132.441 5.11763C132.585 4.76153 132.658 4.3749 132.578 3.96792C132.52 3.65251 132.361 3.33711 132.202 3.09292C131.863 2.59437 131.415 2.27897 130.96 2.04496C130.663 1.89234 130.36 1.7499 130.049 1.67868C129.471 1.55658 128.9 1.59728 128.329 1.78042C127.592 2.02461 126.798 2.60455 126.364 3.51007C126.234 3.78478 126.126 4.12054 126.104 4.44612C126.082 4.91414 126.147 5.2499 126.342 5.63653C126.624 6.19612 127.181 6.46065 127.636 6.57257C128.185 6.70484 128.785 6.74554 129.341 6.62344C130.093 6.45048 130.923 6.1249 131.487 5.35164C131.689 5.07693 131.899 4.72083 131.928 4.30368C131.964 3.8153 131.848 3.4592 131.639 3.07257C130.692 1.34292 128.683 1.46501 127.491 2.57403C127.014 3.01153 126.537 3.71356 126.509 4.56821C126.494 5.03623 126.537 5.32112 126.718 5.70775C126.899 6.09437 127.224 6.27751 127.52 6.37926C128.127 6.57257 128.806 6.37926 129.37 6.05368C129.811 5.79932 130.179 5.43304 130.49 4.92432C130.801 4.4156 130.916 3.60164 130.541 3.07257C130.331 2.78769 129.991 2.70629 129.717 2.69612C129.327 2.67577 128.871 2.80804 128.517 3.03187C128.221 3.21501 127.867 3.46937 127.701 3.87635C127.585 4.16123 127.513 4.49699 127.701 4.76153L127.722 4.71065Z" fill="black"/>
<path d="M141.061 3.76451C149.277 4.01887 157.478 4.63951 165.665 5.53485C166.294 5.60608 167.312 5.1991 167.645 4.38515C168.006 3.51015 167.334 3.20491 166.828 3.14387C158.649 2.15695 150.447 1.58718 142.246 1.32265C141.596 1.3023 140.584 1.63805 140.23 2.50288C139.876 3.3677 140.534 3.75433 141.061 3.76451V3.76451Z" fill="black"/>
<path d="M175.687 2.83851C175.636 3.03182 175.579 3.21496 175.514 3.3981L175.622 3.08269C175.514 3.38793 175.398 3.69316 175.239 3.94752L175.434 3.64229C175.369 3.74403 175.297 3.8356 175.225 3.917L175.499 3.63211C175.499 3.63211 175.434 3.69316 175.398 3.72368C175.275 3.82543 175.355 3.76438 175.629 3.56089C175.535 3.61176 175.579 3.60159 175.752 3.51002C175.933 3.41845 176.113 3.3574 176.373 3.33705C176.684 3.3167 176.496 3.33705 176.417 3.3167L176.756 3.36758C176.691 3.3574 176.634 3.33705 176.576 3.3167L176.85 3.4388C176.756 3.3981 176.67 3.33705 176.59 3.25566L176.793 3.44897C176.699 3.34723 176.619 3.23531 176.561 3.09287L176.67 3.3574C176.626 3.24548 176.605 3.13356 176.597 3.01147V3.3167C176.597 3.20479 176.619 3.10304 176.648 3.0013L176.547 3.3167C176.569 3.25566 176.597 3.20479 176.626 3.15391L176.431 3.45915C176.475 3.3981 176.518 3.33705 176.569 3.28618L176.294 3.57106C176.345 3.52019 176.402 3.4795 176.453 3.42862C176.467 3.41845 176.07 3.68298 176.236 3.58124C176.265 3.56089 176.294 3.54054 176.323 3.53037C176.352 3.52019 176.381 3.49984 176.41 3.4795C176.59 3.37775 176.121 3.61176 176.149 3.60159C176.222 3.58124 176.287 3.55072 176.359 3.52019C176.518 3.45915 175.925 3.63211 176.092 3.59141C176.121 3.59141 176.157 3.58124 176.186 3.57106C176.258 3.56089 176.511 3.53037 176.207 3.56089C175.904 3.59141 176.157 3.56089 176.229 3.56089C176.301 3.56089 176.373 3.56089 176.446 3.58124L176.106 3.53037C176.294 3.56089 176.482 3.61176 176.663 3.69316L176.381 3.57106C176.561 3.65246 176.735 3.76438 176.901 3.89665L176.59 3.13356C176.532 3.3574 176.475 3.58124 176.402 3.7949L176.511 3.4795C176.402 3.7949 176.28 4.07979 176.113 4.34432L176.308 4.03909C176.215 4.18153 176.121 4.3138 176.012 4.42572L176.287 4.14083C176.251 4.18153 176.215 4.21205 176.171 4.24258C176.027 4.37484 176.439 4.05944 176.41 4.07979C176.373 4.10013 176.337 4.12048 176.301 4.14083C176.28 4.15101 176.785 3.917 176.569 4.00856C176.439 4.05944 176.287 4.00856 176.843 3.93734C176.814 3.93734 176.778 3.94752 176.749 3.95769C176.59 3.98822 177.19 3.95769 176.995 3.93734C176.959 3.93734 176.915 3.93734 176.879 3.93734L177.219 3.98822C177.132 3.97804 177.045 3.94752 176.959 3.917L177.241 4.04926C177.147 3.99839 177.06 3.94752 176.973 3.86612L177.176 4.06961C177.074 3.96787 176.988 3.84577 176.923 3.69316L177.031 3.95769C176.959 3.77455 176.923 3.57106 176.923 3.3574V3.66263C176.923 3.44897 176.966 3.24548 177.031 3.05217L176.923 3.36758C176.973 3.23531 177.031 3.11322 177.096 3.0013L176.901 3.30653C176.944 3.24548 176.98 3.19461 177.031 3.14374L176.756 3.42862C176.756 3.42862 176.814 3.37775 176.843 3.34723C176.547 3.55072 176.46 3.61176 176.59 3.53037C176.677 3.4795 176.634 3.49984 176.453 3.59141C176.272 3.67281 176.229 3.69316 176.316 3.66263C175.962 3.74403 175.853 3.77455 175.991 3.7542C176.113 3.73386 176.012 3.74403 175.694 3.77455C175.716 3.77455 175.745 3.77455 175.767 3.77455L175.427 3.72368C175.485 3.73386 175.543 3.7542 175.6 3.77455L175.319 3.64229C175.398 3.68298 175.47 3.73386 175.535 3.80508L175.333 3.60159C175.463 3.73386 175.564 3.89665 175.644 4.08996L175.535 3.82543C175.615 4.03909 175.665 4.26293 175.665 4.49694V4.1917C175.665 4.36467 175.636 4.54781 175.615 4.7106C175.514 5.53473 176.316 5.64665 176.713 5.61612C177.371 5.56525 178.057 5.21932 178.483 4.48676C178.736 4.05944 178.794 3.4388 178.671 2.9199C178.548 2.40101 178.281 1.98386 177.941 1.6888C177.768 1.53618 177.566 1.44461 177.371 1.39374C176.894 1.26147 176.417 1.33269 175.947 1.48531C175.282 1.69897 174.675 2.19752 174.242 2.93008C173.808 3.66263 173.707 4.88356 174.242 5.59577C174.545 6.00275 174.964 6.24694 175.369 6.31816C176.121 6.45043 176.858 6.29781 177.559 5.90101C178.158 5.55508 178.686 4.98531 179.076 4.25275C179.336 3.76438 179.509 3.18444 179.647 2.61467C179.726 2.26874 179.517 1.99403 179.336 1.85159C178.707 1.34287 177.927 1.1292 177.204 1.1699C176.699 1.20043 176.2 1.28182 175.709 1.50566C175.131 1.77019 174.553 2.09577 174.09 2.66554C173.758 3.07252 173.512 3.63211 173.584 4.2731C173.62 4.60886 173.801 4.93444 173.996 5.1481C174.95 6.16554 176.373 5.83996 177.327 4.99548C177.71 4.65973 178.05 4.21205 178.288 3.68298C178.476 3.25566 178.621 2.78763 178.751 2.31961C178.845 1.99403 178.613 1.67862 178.44 1.54636C178.158 1.34287 177.732 1.33269 177.436 1.39374C176.778 1.52601 175.969 1.91263 175.701 2.85886L175.687 2.83851Z" fill="black"/>
<path d="M189.04 4.92464H199.734C203.297 4.92464 206.909 5.16883 210.465 4.86359C210.985 4.8229 211.91 4.36505 212.105 3.59179C212.3 2.81854 211.707 2.554 211.245 2.5133C207.777 2.1979 204.222 2.48278 200.746 2.48278H190.232C189.582 2.48278 188.571 2.77784 188.216 3.65284C187.862 4.52784 188.513 4.91447 189.047 4.91447L189.04 4.92464Z" fill="black"/>
<path d="M221.563 2.64526C221.513 2.69614 221.455 2.73683 221.397 2.78771L221.737 2.54352C221.657 2.60457 221.571 2.64526 221.484 2.69614L221.881 2.50282C221.809 2.53335 221.73 2.56387 221.657 2.58422L222.069 2.4723C221.99 2.49265 221.917 2.50282 221.838 2.513L222.221 2.48247C222.127 2.48247 222.04 2.48247 221.946 2.48247L222.286 2.53335H222.25L222.835 3.40835C222.871 3.2659 222.907 3.11329 222.951 2.98102L222.85 3.29643C222.922 3.08276 223.009 2.87928 223.124 2.69614L222.929 3.00137C222.994 2.89963 223.066 2.80806 223.139 2.73683L222.864 3.02172C222.907 2.98102 222.951 2.94032 222.994 2.9098L222.654 3.15399C222.698 3.12346 222.734 3.10311 222.777 3.08276L222.38 3.27608C222.38 3.27608 222.445 3.24556 222.481 3.23538L222.069 3.3473C222.113 3.33713 222.156 3.32695 222.199 3.32695L221.816 3.35747C221.867 3.35747 221.917 3.35747 221.968 3.35747L221.628 3.3066C221.708 3.31678 221.78 3.33713 221.852 3.37782L221.578 3.25573C221.708 3.31678 221.824 3.39817 221.932 3.51009L221.73 3.31678C221.896 3.48974 222.04 3.69323 222.149 3.94759L222.04 3.68306C222.134 3.91707 222.192 4.17143 222.199 4.44614V4.1409C222.199 4.32404 222.17 4.50718 222.12 4.68015L222.221 4.36474C222.178 4.49701 222.12 4.6191 222.047 4.72085L222.243 4.41561C222.192 4.49701 222.134 4.55806 222.076 4.6191L222.351 4.33422C222.3 4.38509 222.243 4.43596 222.185 4.47666L222.524 4.23247C222.474 4.263 222.423 4.29352 222.365 4.32404L222.763 4.13073C222.712 4.15108 222.654 4.17143 222.597 4.19178L223.009 4.07986C222.951 4.09003 222.9 4.10021 222.842 4.11038L223.225 4.07986C223.153 4.07986 223.074 4.07986 223.001 4.07986L223.341 4.13073C223.269 4.12056 223.196 4.10021 223.124 4.05951L223.406 4.19178C223.305 4.1409 223.218 4.07986 223.131 3.99846L223.334 4.20195C223.218 4.07986 223.124 3.93742 223.052 3.76445L223.16 4.02899C223.059 3.77463 223.009 3.48974 223.009 3.19468V3.49992C223.009 3.24556 223.045 3.00137 223.124 2.76736L223.016 3.08276C223.066 2.94032 223.124 2.80806 223.196 2.68596L223.001 2.9912C223.045 2.91997 223.095 2.85893 223.146 2.80806L222.871 3.09294C222.907 3.05224 222.951 3.02172 222.994 2.9912L222.647 3.23538C222.691 3.20486 222.734 3.18451 222.777 3.15399L222.38 3.3473C222.423 3.32695 222.467 3.3066 222.517 3.29643L222.105 3.40835C222.149 3.39817 222.199 3.388 222.243 3.388L221.86 3.41852C221.925 3.41852 221.99 3.41852 222.055 3.41852L221.715 3.36765C221.802 3.37782 221.881 3.40835 221.961 3.44904L221.679 3.31678C221.795 3.37782 221.903 3.44904 222.004 3.55079L221.802 3.3473C221.932 3.47957 222.04 3.64236 222.127 3.83567L222.019 3.57114C222.069 3.7034 222.105 3.83567 222.127 3.97811L222.43 3.05224C222.286 3.25573 222.127 3.43887 221.961 3.61183L222.235 3.32695C222.04 3.53044 221.831 3.7034 221.614 3.85602L221.961 3.61183C221.766 3.7441 221.571 3.8662 221.361 3.96794L221.751 3.7848C221.571 3.86619 221.397 3.95776 221.217 4.03916L221.599 3.85602C221.542 3.88654 221.477 3.91707 221.419 3.93742C221.094 4.06968 220.696 4.28335 220.451 4.62928C220.299 4.83277 220.162 5.0566 220.162 5.37201C220.147 5.47375 220.162 5.56532 220.212 5.64672C220.256 5.79934 220.342 5.90108 220.458 5.96213C220.754 6.14527 221.101 6.16561 221.419 6.10457C222.351 5.91125 223.29 5.4534 224.071 4.68015C224.266 4.48683 224.468 4.28335 224.649 4.05951C224.909 3.7441 225.256 3.35747 225.176 2.81823C225.155 2.68596 225.118 2.5537 225.068 2.4316C224.981 2.21794 224.894 2.00428 224.764 1.83131C224.049 0.88509 222.98 0.864741 222.076 1.1598C221.173 1.45486 220.256 2.25864 220.003 3.56096C219.93 3.92724 219.93 4.36474 219.988 4.73102C220.01 4.87346 220.046 5.00573 220.097 5.138C220.176 5.35166 220.263 5.56532 220.386 5.72811C221.079 6.68451 222.199 6.61329 223.066 6.31823C223.933 6.02317 224.909 5.26009 225.191 3.98829C225.35 3.2659 225.133 2.4723 224.786 1.93306C224.215 1.06823 223.276 0.793521 222.474 0.997009C221.766 1.16997 221.029 1.52608 220.516 2.27899C220.349 2.52317 220.19 2.77753 220.075 3.08276C219.974 3.36765 219.873 3.65253 219.808 3.95776C219.699 4.44614 220.104 4.79207 220.393 4.84294C220.61 4.87346 220.819 4.92433 221.036 4.91416C221.419 4.89381 221.737 4.84294 222.113 4.72085C222.575 4.5784 223.045 4.3037 223.442 3.94759C223.659 3.75428 223.962 3.42869 224.02 3.04207C224.071 2.70631 223.926 2.41125 223.709 2.27899C223.406 2.08567 223.037 2.06532 222.705 2.12637C222.308 2.20776 221.896 2.36038 221.556 2.67579L221.563 2.64526Z" fill="black"/>
<path d="M234.071 4.74112C241.673 4.33414 249.289 4.44606 256.883 5.09722C257.526 5.1481 258.552 4.76147 258.899 3.91699C259.26 3.03182 258.588 2.69606 258.068 2.65536C250.474 2.0042 242.858 1.88211 235.256 2.29926C234.599 2.33996 233.609 2.57397 233.24 3.47949C232.901 4.31379 233.529 4.77164 234.071 4.74112Z" fill="black"/>
</g>
<defs>
<clipPath id="clip0_34_41">
<rect width="259" height="7" fill="white"/>
</clipPath>
</defs>
</svg>
