<svg width="619" height="606" viewBox="0 0 619 606" fill="none" xmlns="http://www.w3.org/2000/svg">
<path d="M266.595 79.2622C287.276 58.6598 320.724 58.6598 341.405 79.2622L528.308 265.452C549.101 286.166 549.101 319.834 528.308 340.548L341.405 526.738C320.724 547.34 287.276 547.34 266.595 526.738L79.6921 340.548C58.8987 319.834 58.8987 286.166 79.6921 265.452L266.595 79.2622Z" fill="#D9D9D9"/>
<path d="M257.942 57.633C278.43 37.2177 311.57 37.2176 332.058 57.633L540.972 265.811C561.562 286.329 561.562 319.671 540.972 340.189L332.058 548.367C311.57 568.782 278.43 568.782 257.942 548.367L49.0283 340.189C28.4384 319.671 28.4384 286.329 49.0283 265.811L257.942 57.633Z" stroke="black"/>
<path d="M266.938 37.6459C287.427 17.2248 320.573 17.2249 341.062 37.6459L569.985 265.816C590.569 286.332 590.569 319.668 569.985 340.184L341.062 568.354C320.573 588.775 287.427 588.775 266.938 568.354L38.0152 340.184C17.431 319.668 17.4311 286.332 38.0152 265.816L266.938 37.6459Z" stroke="black"/>
<path d="M277.938 37.6459C298.427 17.2248 331.573 17.2249 352.062 37.6459L580.985 265.816C601.569 286.332 601.569 319.668 580.985 340.184L352.062 568.354C331.573 588.775 298.427 588.775 277.938 568.354L49.0152 340.184C28.431 319.668 28.4311 286.332 49.0152 265.816L277.938 37.6459Z" stroke="black"/>
</svg>
