<svg width="100" height="100" viewBox="0 0 100 100" fill="none" xmlns="http://www.w3.org/2000/svg">
<g clip-path="url(#clip0_30_180)">
<path d="M0 100V0H100V100H0Z" fill="white"/>
<path d="M8.33334 18.333C8.33334 12.8102 12.8105 8.33301 18.3333 8.33301H81.6666C87.1895 8.33301 91.6666 12.8102 91.6666 18.333V81.6663C91.6666 87.1892 87.1895 91.6663 81.6666 91.6663H18.3334C12.8105 91.6663 8.33334 87.1892 8.33334 81.6663V18.333Z" fill="#8BB7F0"/>
<path d="M80 9.99984C85.5228 9.99984 90 14.477 90 19.9998V79.9998C90 85.5227 85.5228 89.9998 80 89.9998H20C14.4772 89.9998 10 85.5227 10 79.9998V19.9998C10 14.477 14.4772 9.99984 20 9.99984H80ZM93.3333 16.6665C93.3333 11.1436 88.8562 6.6665 83.3333 6.6665H16.6667C11.1438 6.6665 6.66667 11.1437 6.66667 16.6665V83.3332C6.66667 88.856 11.1438 93.3331 16.6667 93.3331H83.3333C88.8562 93.3331 93.3333 88.856 93.3333 83.3331V16.6665Z" fill="#4E7AB5"/>
<path d="M20 41.6665H33.3333V68.1665V79.9998H20V41.6665ZM26.6667 36.6665C22.6667 36.6665 20 33.8332 20 30.3332C20 26.8332 22.6667 24.1665 26.6667 24.1665C30.6667 24.1665 33.1667 26.8332 33.3333 30.3332C33.3333 33.8332 30.8333 36.6665 26.6667 36.6665ZM77.8433 79.9998H64.68C64.68 79.9998 64.68 60.0898 64.68 58.6098C64.68 57.1298 64.5167 52.0298 58.92 52.0298C53.9833 52.0298 53.16 56.7998 53.16 58.6098C53.16 60.4198 53.16 79.9998 53.16 79.9998H40V42.1565H53.1633V47.2565C53.1633 47.2565 55.7967 42.1565 63.53 42.1565C71.4267 42.1565 77.8433 47.5865 77.8433 58.6098V79.9998Z" fill="white"/>
</g>
<defs>
<clipPath id="clip0_30_180">
<rect width="100" height="100" fill="white"/>
</clipPath>
</defs>
</svg>
