<svg width="497" height="133" viewBox="0 0 497 133" fill="none" xmlns="http://www.w3.org/2000/svg">
<g clip-path="url(#clip0_236_2)">
<path d="M443.482 31.5946C456.989 31.5725 470.496 31.5504 484.004 31.5283C487.835 31.5196 491.672 31.5313 495.505 31.4725C496.031 31.4688 496.624 31.1773 496.302 30.5925C495.98 30.0076 494.943 29.8084 494.338 29.8015C480.826 29.6494 467.302 29.8078 453.795 29.8299L442.271 29.8478C441.723 29.847 441.105 30.1673 441.442 30.7697C441.78 31.3721 442.863 31.597 443.499 31.5954L443.482 31.5946Z" fill="black"/>
<path d="M493.754 30.1066C485.901 43.6132 477.918 57.0464 469.803 70.3959C467.487 74.2107 465.153 78.0145 462.818 81.8183C462.198 82.8243 465.003 83.7377 465.506 82.9232C473.699 69.6177 481.756 56.2351 489.687 42.7726C491.95 38.9284 494.204 35.0704 496.448 31.2152C497.045 30.188 494.233 29.2876 493.76 30.1103L493.754 30.1066Z" fill="black"/>
<path d="M441.48 30.4136C448.087 43.6715 452.986 57.6735 458.137 71.5342C459.582 75.4204 461.053 79.3046 462.583 83.1616C462.826 83.7793 463.619 84.0632 464.234 84.1275C464.54 84.163 465.717 84.1149 465.474 83.4972C459.972 69.6189 455.291 55.4138 449.414 41.684C447.769 37.848 446.032 34.0541 444.168 30.3176C443.749 29.4802 440.864 29.165 441.484 30.4071L441.48 30.4136Z" fill="black"/>
<path d="M493.794 29.6405C481.83 33.6474 469.93 37.8449 458.102 42.2199C454.731 43.466 451.366 44.7325 448.003 46.0092C447.348 46.2573 447.927 46.9187 448.268 47.1365C448.848 47.5068 449.668 47.6349 450.313 47.3895C462.106 42.909 473.964 38.6024 485.893 34.49C489.29 33.3188 492.697 32.1615 496.107 31.0143C496.784 30.7873 496.163 30.0938 495.842 29.887C495.242 29.5057 494.461 29.4163 493.797 29.634L493.794 29.6405Z" fill="black"/>
<path d="M489.949 29.6584C480.16 36.9425 470.511 44.4343 461.039 52.129C458.35 54.3092 455.677 56.507 453.014 58.7186C452.501 59.1412 453.502 59.74 453.796 59.8719C454.356 60.1107 455.196 60.2498 455.709 59.8272C465.095 52.0246 474.64 44.4138 484.348 37.0153C487.103 34.9153 489.863 32.8356 492.643 30.767C493.179 30.3656 492.13 29.731 491.861 29.6138C491.271 29.3668 490.49 29.2607 489.949 29.6584Z" fill="black"/>
<path d="M453.062 57.965C449.798 59.5979 446.464 61.0533 443.149 62.5799C442.56 62.8481 443.039 63.4275 443.396 63.6461C443.951 63.9851 444.721 64.1273 445.338 63.884C448.731 62.5386 452.034 60.9277 455.297 59.2948C455.884 58.9997 455.42 58.4378 455.044 58.2082C454.517 57.8941 453.649 57.6699 453.062 57.965Z" fill="black"/>
<path d="M448.277 47.4247C445.884 53.0489 443.316 58.6341 441.136 64.3526C440.797 65.2422 443.457 65.971 443.884 65.0624C446.48 59.5187 448.717 53.7898 451.107 48.1554C451.475 47.2907 448.694 46.442 448.277 47.4247Z" fill="black"/>
<path d="M445.771 65.5952C447.44 65.2071 449.122 64.8866 450.818 64.6337C452.513 64.3808 454.16 64.2894 455.901 64.0789C456.419 64.0113 456.583 63.5544 456.25 63.1865C455.828 62.7171 455.085 62.5293 454.479 62.539C452.691 62.5598 450.872 62.8199 449.106 63.0759C447.34 63.332 445.681 63.657 443.992 64.0507C443.785 64.0972 443.495 64.2165 443.44 64.4512C443.384 64.686 443.573 64.9296 443.733 65.0715C444.23 65.5145 445.118 65.7497 445.778 65.5988L445.771 65.5952Z" fill="black"/>
<path d="M450.155 63.1016C451.348 62.7967 452.544 62.5021 453.74 62.1907C453.934 62.1368 454.192 62.0428 454.251 61.8182C454.309 61.5936 454.132 61.374 453.981 61.246C453.725 61.0324 453.408 60.8794 453.087 60.8097C452.766 60.7401 452.414 60.679 452.092 60.7632C450.89 61.0542 449.69 61.3554 448.491 61.6566C448.291 61.7068 448.028 61.8074 447.97 62.0319C447.912 62.2565 448.091 62.4863 448.242 62.6143C448.499 62.8279 448.823 62.9846 449.15 63.0579C449.478 63.1312 449.833 63.1858 450.155 63.1016Z" fill="black"/>
<path d="M446.521 62.6555L446.22 62.6404C445.886 62.6237 446.437 62.6513 446.17 62.6379L447.185 64.0938C449.286 63.4097 451.411 62.8069 453.55 62.2384C453.744 62.1845 454.003 62.0905 454.061 61.8659C454.119 61.6413 453.943 61.4217 453.792 61.2937C453.32 60.8987 452.516 60.651 451.896 60.8073C449.751 61.3387 447.629 61.9683 445.53 62.6627C445.36 62.7211 445.054 62.8061 445.019 63.0352C444.99 63.2244 445.076 63.3759 445.203 63.5161C445.619 63.9652 446.296 64.1329 446.888 64.1325C447.119 64.134 447.342 64.1486 447.563 64.1529C447.977 64.1637 448.632 63.8553 448.275 63.3623C447.88 62.8307 447.131 62.6827 446.514 62.6518L446.521 62.6555Z" fill="black"/>
<path d="M451.981 62.9827C452.947 62.4558 453.914 61.9288 454.868 61.3778C455.051 61.2665 455.186 61.1194 455.143 60.8898C455.101 60.6602 454.818 60.4319 454.623 60.3218C454.311 60.1455 453.956 60.014 453.596 59.9826C453.303 59.9545 452.973 59.948 452.705 60.0884C451.722 60.5978 450.755 61.1415 449.785 61.675C449.595 61.7826 449.464 61.9399 449.506 62.1695C449.548 62.3991 449.837 62.631 450.032 62.7412C450.351 62.9211 450.713 63.0563 451.076 63.0812C451.369 63.1093 451.713 63.1232 451.985 62.9762L451.981 62.9827Z" fill="black"/>
<path d="M452.506 61.2459C452.615 61.8736 452.724 62.5013 452.85 63.1299C452.881 63.2419 452.943 63.3453 453.036 63.4236C453.127 63.5352 453.24 63.6245 453.37 63.6979C453.526 63.7861 453.683 63.8575 453.851 63.9094C454.029 63.9752 454.211 64.0177 454.397 64.0371L454.741 64.051C454.932 64.0472 455.114 64.0128 455.289 63.9313L455.463 63.8062C455.555 63.7037 455.587 63.5849 455.554 63.4461C455.462 62.8192 455.353 62.1915 455.246 61.574C455.212 61.4518 455.153 61.3585 455.06 61.2803C454.969 61.1686 454.85 61.0757 454.72 61.0023C454.563 60.9141 454.4 60.839 454.232 60.7871C454.055 60.7214 453.873 60.6788 453.68 60.6557L453.336 60.6418C453.145 60.6457 452.959 60.6865 452.781 60.7579L452.598 60.8859C452.502 60.9948 452.469 61.1136 452.502 61.2524L452.506 61.2459Z" fill="black"/>
<path d="M427.678 34.5326L422.955 35.8481C422.762 35.902 422.506 35.9896 422.448 36.2141C422.397 36.4257 422.566 36.6583 422.714 36.7761C422.965 36.9861 423.275 37.1354 423.596 37.2051C423.917 37.2747 424.265 37.3423 424.574 37.2507L429.304 35.9389C429.497 35.885 429.752 35.7974 429.81 35.5729C429.861 35.3613 429.692 35.1287 429.544 35.0109C429.294 34.8009 428.983 34.6516 428.662 34.5819C428.341 34.5123 427.993 34.4447 427.684 34.5363L427.678 34.5326Z" fill="black"/>
<path d="M434.263 45.2738L425.648 47.6788C425.455 47.7327 425.199 47.8203 425.138 48.0514C425.087 48.2629 425.256 48.4955 425.407 48.6235C425.866 49.0112 426.685 49.2764 427.286 49.1091L435.907 46.7077C436.101 46.6539 436.36 46.5598 436.418 46.3352C436.472 46.1172 436.299 45.8911 436.149 45.7631C435.69 45.3754 434.863 45.1065 434.259 45.2803L434.263 45.2738Z" fill="black"/>
<path d="M445.805 70.0662C443.019 70.9904 440.229 71.921 437.449 72.8489C437.252 72.9093 436.994 72.9867 436.938 73.2214C436.884 73.4395 437.063 73.6693 437.208 73.7936C437.651 74.1637 438.515 74.4713 439.104 74.28C441.896 73.3595 444.686 72.4289 447.473 71.5047C447.673 71.4378 447.928 71.3669 447.993 71.1293C448.048 70.9113 447.872 70.675 447.721 70.547C447.272 70.1732 446.401 69.8619 445.812 70.0532L445.805 70.0662Z" fill="black"/>
<path d="M459.016 85.2412C456.362 85.9311 453.715 86.6247 451.06 87.3146C450.867 87.3685 450.602 87.4589 450.543 87.6835C450.485 87.908 450.665 88.1378 450.819 88.2593C451.291 88.6543 452.102 88.9057 452.722 88.7494C455.382 88.0632 458.036 87.3733 460.69 86.6833C460.89 86.6331 461.153 86.5326 461.211 86.308C461.269 86.0834 461.09 85.8536 460.939 85.7256C460.461 85.3269 459.644 85.0719 459.02 85.2347L459.016 85.2412Z" fill="black"/>
</g>
<path d="M1 132C16 105.5 78.482 60.0854 168 77.9997C219 88.2057 303.5 166.791 416.5 80.7911" stroke="black" stroke-dasharray="14 14"/>
<defs>
<clipPath id="clip0_236_2">
<rect width="62" height="73" fill="white" transform="translate(442.873) rotate(29.433)"/>
</clipPath>
</defs>
</svg>
